# xmcd CD database file
# Copyright (C) 1993-1996 Ti Kan
#
# Track frame offsets:
#	182
#	11925
#	23225
#	59535
#	78162
#	110540
#	148972
#	171202
#	208805
#	260450
#
# Disc length: 3602 seconds
#
# Revision: 1
# Processed by: cddbd v1.4b41PL1 Copyright (c) Steve Scherf et al.
# Submitted via: EasyCD2 v3.00 - Copyright (c) 1997 Greg Leichner
#
DISCID=910e100a
DTITLE=Santana - Acapulco Sunrise
DYEAR=1900
DGENRE=
TTITLE0=Acapulco Sunrise
TTITLE1=Coconut Grove
TTITLE2=Hot Tamales
TTITLE3=With A Little Help From My Friends
TTITLE4=Every Day I Have The Blues
TTITLE5=Jam In E
TTITLE6=Travellin' Blues
TTITLE7=Jammin' Home
TTITLE8=Latin Tropical
TTITLE9=Let's Get Ourselves Together
EXTD=
EXTT0=
EXTT1=
EXTT2=
EXTT3=
EXTT4=
EXTT5=
EXTT6=
EXTT7=
EXTT8=
EXTT9=
PLAYORDER=
